<svg viewBox="0 0 500 150" xmlns="http://www.w3.org/2000/svg">
  <path d="M 57.531 27.862 C 47.531 30.862 35.531 37.862 29.531 46.862 C 6.531 75.862 21.531 117.862 57.531 126.862 L 469.531 126.862 L 469.531 122.862 L 307.531 122.862 L 146.531 121.862 L 146.531 118.862 C 150.531 110.862 146.531 100.862 138.531 96.862 C 135.531 95.862 129.531 95.862 125.531 97.862 C 122.531 98.862 118.531 103.862 117.531 107.862 C 116.531 111.862 117.531 116.862 118.531 119.862 L 120.531 121.862 L 92.531 121.862 L 95.531 119.862 C 100.531 116.862 108.531 108.862 111.531 102.862 C 124.531 82.862 120.531 56.862 103.531 39.862 C 97.531 34.862 92.531 32.862 85.531 29.862 L 71.531 26.862 L 57.531 27.862 Z M 89.531 42.862 C 108.531 60.862 112.531 64.862 113.531 67.862 L 113.531 71.862 L 93.531 51.862 L 73.531 32.862 L 76.531 32.862 C 79.531 32.862 80.531 34.862 89.531 42.862 Z M 85.531 60.862 L 112.531 87.862 L 111.531 89.862 L 111.531 91.862 L 82.531 63.862 L 54.531 34.862 C 57.531 32.862 58.531 32.862 85.531 60.862 Z M 75.531 70.862 L 106.531 102.862 L 104.531 103.862 L 103.531 105.862 L 98.531 100.862 L 93.531 95.862 L 80.531 108.862 L 66.531 121.862 L 62.531 121.862 C 61.531 121.862 62.531 119.862 75.531 106.862 L 89.531 92.862 L 85.531 87.862 L 80.531 82.862 L 63.531 98.862 L 45.531 115.862 L 43.531 114.862 L 42.531 112.862 L 59.531 95.862 L 76.531 79.862 L 71.531 74.862 L 66.531 69.862 L 49.531 86.862 L 32.531 103.862 L 31.531 101.862 L 29.531 100.862 L 46.531 83.862 L 63.531 66.862 L 58.531 60.862 L 53.531 55.862 L 39.531 70.862 L 24.531 83.862 L 24.531 81.862 C 23.531 79.862 24.531 78.862 36.531 65.862 L 50.531 53.862 L 45.531 47.862 L 40.531 41.862 L 43.531 39.862 L 75.531 70.862 Z M 137.531 102.862 C 144.531 105.862 145.531 116.862 138.531 120.862 C 134.531 122.862 128.531 121.862 125.531 119.862 C 123.531 117.862 122.531 114.862 122.531 112.862 C 122.531 103.862 129.531 98.862 137.531 102.862 Z" style="fill: rgb(249, 247, 255);" transform="matrix(0.9999999999999999, 0, 0, 0.9999999999999999, 0, -1.4210854715202004e-14)"/>
  <text style="font-family: Roboto; font-size: 100px; white-space: pre;fill: rgb(249, 247, 255);" x="141.606" y="114.1" transform="matrix(0.9999999999999999, 0, 0, 0.9999999999999999, 0, -1.4210854715202004e-14)">whool</text>
</svg>